<svg xmlns="http://www.w3.org/2000/svg" viewBox="0 0 512 512" width="512" height="512">
  <!-- $>= -->
  <rect width="512" height="512" fill="#0e1117"/>
  
  <!-- @0485=B D>=0 -->
  <defs>
    <linearGradient id="bgGrad" x1="0%" y1="0%" x2="100%" y2="100%">
      <stop offset="0%" style="stop-color:#1f6feb;stop-opacity:0.15" />
      <stop offset="100%" style="stop-color:#58a6ff;stop-opacity:0.05" />
    </linearGradient>
    <linearGradient id="accentGrad" x1="0%" y1="0%" x2="100%" y2="100%">
      <stop offset="0%" style="stop-color:#58a6ff" />
      <stop offset="100%" style="stop-color:#1f6feb" />
    </linearGradient>
  </defs>
  
  <rect width="512" height="512" fill="url(#bgGrad)"/>
  
  <!-- !:@C3;Q==K9 :>=B59=5@ -->
  <rect x="40" y="40" width="432" height="432" rx="100" fill="#0e1117" stroke="url(#accentGrad)" stroke-width="2"/>
  
  <!-- >4>2K5 A:>1:8 "{" -->
  <g transform="translate(100, 150)">
    <path d="M 0 10 Q 15 10 15 30 Q 15 50 0 50" stroke="#58a6ff" stroke-width="6" fill="none" stroke-linecap="round"/>
  </g>
  
  <!-- >4>2K5 A:>1:8 "}" -->
  <g transform="translate(380, 150)">
    <path d="M 15 10 Q 0 10 0 30 Q 0 50 15 50" stroke="#58a6ff" stroke-width="6" fill="none" stroke-linecap="round"/>
  </g>
  
  <!-- 803>=0;L=0O ;8=8O (A8<2>; "/") -->
  <line x1="180" y1="200" x2="280" y2="350" stroke="#1f6feb" stroke-width="8" stroke-linecap="round" opacity="0.7"/>
  
  <!-- ">G:0 (A8<2>;878@C5B /0:B82=>ABL) -->
  <circle cx="256" cy="280" r="20" fill="#3fb950" opacity="0.9"/>
  
  <!-- 5;:85 ;8=88 (A8<2>;878@CNB :>4) -->
  <line x1="140" y1="380" x2="220" y2="380" stroke="#8b949e" stroke-width="4" stroke-linecap="round" opacity="0.6"/>
  <line x1="280" y1="380" x2="360" y2="380" stroke="#8b949e" stroke-width="4" stroke-linecap="round" opacity="0.6"/>
  
  <!-- "5:AB -->
  <text x="256" y="450" font-family="monospace" font-size="28" font-weight="bold" fill="#e6edf3" text-anchor="middle" letter-spacing="2">MEGA</text>
</svg>
